<svg id="Layer_1" data-name="Layer 1" xmlns="http://www.w3.org/2000/svg" xmlns:xlink="http://www.w3.org/1999/xlink" viewBox="0 0 288 288"><defs><style>.cls-1{fill:none;}.cls-2{clip-path:url(#clip-path);}</style><clipPath id="clip-path"><path class="cls-1" d="M144,281.19a4.36,4.36,0,0,1-2.49-.78c-1.38-1-116.59-66.53-116.59-68.52V76.11a4.37,4.37,0,0,1,2.22-3.81L141.84,7.38a4.38,4.38,0,0,1,4.32,0L260.86,72.3a4.37,4.37,0,0,1,2.22,3.81V211.89a4.35,4.35,0,0,1-2.22,3.8l-114.7,64.93A4.39,4.39,0,0,1,144,281.19Z"/></clipPath></defs><title>Mountain_Logo</title><g class="cls-2"><path d="M254.33,142.35c-7.31,6.89-15,13.49-22.48,19.87C215,176.6,197.58,191.47,184.74,210a175,175,0,0,0-24.17,52.48q-1.62,5.75-2.94,11.72L260.86,215.8a4.35,4.35,0,0,0,2.22-3.81V133.46q-2.9,3.3-6.21,6.51C256,140.77,255.17,141.56,254.33,142.35Z"/><path d="M260.86,72.41,146.16,7.49a4.38,4.38,0,0,0-4.32,0L27.13,72.41a4.38,4.38,0,0,0-2.22,3.81v130.3q2.88-3.32,5.73-6.55V82a5,5,0,0,1,2.55-4.37L141.52,15.56a5,5,0,0,1,4.95,0L252.32,75.65a5,5,0,0,1,2.54,4.19h0v7.42c0,.47,0,.9,0,1.31v1h0v27.22a4.37,4.37,0,0,1-1.06,2.85c-10.55,12.32-23.34,21.84-35.7,31.05-4.89,3.65-10,7.42-14.76,11.28a151.9,151.9,0,0,0-17.58,16.24,181.87,181.87,0,0,0-40,73l-.41,1.41c-2.17,7.42-3.56,12.64-4.45,16.32-.07.37-.13.72-.2,1.07-.44,2.38-.79,4.47-1.06,6.21a4.39,4.39,0,0,0,1.84,4.27,3.43,3.43,0,0,0,.49.28l.2.1a2.5,2.5,0,0,0,.38.15l.2.07.43.1.18,0a4.07,4.07,0,0,0,.61.05,4.42,4.42,0,0,0,2.16-.57l1.36-.78q1.09-5.81,2.42-11.43c5.73-23.93,15-45.21,27.6-63.47,13.49-19.51,31.36-34.75,48.63-49.49,8.24-7,16.77-14.31,24.61-21.89q1.84-1.78,3.55-3.6a87.81,87.81,0,0,0,8.75-10.88v-43A4.36,4.36,0,0,0,260.86,72.41Z"/><path d="M67,163.28c.34-.28.69-.57,1.06-.86,3.18-2.49,7.49-5.26,11.49-7.82,2.77-1.78,5.38-3.45,7.36-4.86,15.8-11.32,36.43-15,56.38-18.55l.25-.05c6.54-1.16,13.29-2.37,19.69-3.83,2.93-.67,5.88-1.47,8.81-2.33l0,0c1.14-.34,2.27-.7,3.4-1.07l1-.32h0c1.48-.49,2.94-1,4.38-1.51l0,0c13.28-4.83,27.74-12.16,35.94-16.53l0,0c2.19-1.18,4.88-2.64,7.72-4.31,7.72-4.56,16.52-10.74,19.31-17.3a11.89,11.89,0,0,0,.75-2.45,4.31,4.31,0,0,1,.51-1.39L146.46,24a5,5,0,0,0-4.94,0L41.4,79.92a5.05,5.05,0,0,0-2.57,4.32l-1.4,107.65v.49c4.38-4.82,8.8-9.51,13.32-14,5.2-5.2,10.56-10.2,16.2-15Zm15.2-18.95c-3.5,2.5-6.9,5.12-10.3,7.86l21-47.56a2.15,2.15,0,0,1,1.61-1.26,2.21,2.21,0,0,1,.39,0,2.08,2.08,0,0,1,1.56.69l23.14,24.71C106.24,131.89,93.33,136.33,82.17,144.33Zm-19.55-38c-.07-3,2.77-5.79,6.61-6.5a10.14,10.14,0,0,1,1.8-.17,7.24,7.24,0,0,1,6.36,3.12,3.66,3.66,0,0,0,3.4,1.81,19.25,19.25,0,0,1,2.52,0l-5.23,11.83A15.24,15.24,0,0,1,69.52,115a3.66,3.66,0,0,0-3.9.18,12.54,12.54,0,0,1-4.84,1.94,11.75,11.75,0,0,1-6.32-.41c-1.12-.45-1.88-1.1-2-1.7a3,3,0,0,1,1.26-2.31,11.74,11.74,0,0,1,5.84-2.66A3.67,3.67,0,0,0,62.62,106.35ZM114,55.44c.69-2.66,3.58-4.74,7-5.06.31,0,.62-.05.93-.05,3.5,0,6.51,1.84,7.2,4.51a3.8,3.8,0,0,0,4,2.7,11.88,11.88,0,0,1,6.26,1c1.08.55,1.78,1.27,1.84,1.88a3.05,3.05,0,0,1-1.46,2.18,11.86,11.86,0,0,1-6,2.12,12.73,12.73,0,0,1-5.19-.55,3.67,3.67,0,0,0-3.79.88c-2.12,2.14-5.87,3.65-10,4a18.53,18.53,0,0,1-9.35-1.37c-1.84-.88-3-2.08-3.11-3.21h0c-.19-2.13,3.3-5.21,8.81-6.38A3.69,3.69,0,0,0,114,55.44Zm47.64,65.05c-6.28,1.43-12.72,2.58-19.53,3.79-4.17.74-8.37,1.5-12.56,2.32l-14.92-15.94,13.45-30.48a5,5,0,0,1,8.51-1l30.84,39.9C165.5,119.57,163.56,120.05,161.64,120.49Zm13.45-.92h0l.08,0Zm1.33-3.2L158.89,93.69l14.69-33.28a4.88,4.88,0,0,1,3.95-2.93,5.23,5.23,0,0,1,.62,0A4.8,4.8,0,0,1,182,59.33l30.89,41.1A240.17,240.17,0,0,1,176.42,116.37Z"/><path d="M68.5,234.58c-1.48,2.51-2.93,5-4.32,7.61s-2.74,5.1-4,7.69L72,255.49c1-2.3,2.09-4.59,3.18-6.86q1.91-4,3.94-7.84,5.13-9.78,11.11-19.13L81,215.37Q74.32,224.69,68.5,234.58Z"/><path d="M114.58,176.64c-5,4.56-9.36,9.56-14.06,14.36l7.37,6.35c4.28-4.8,8.33-9.89,12.83-14.44a169.15,169.15,0,0,1,14.14-13l-4.8-6.17A177.25,177.25,0,0,0,114.58,176.64Z"/><path d="M159.82,153.58c11.52-5.74,24-10,36.19-15.05l-1.6-4.11c-12.26,4.42-25,8-37.27,13.43Z"/><path d="M223.43,124.18a132.18,132.18,0,0,0,22.68-18.6c2.4-2.48,4.7-5,6.87-7.73l-.77-.65q-2.93,3.27-6.1,6.29a129.21,129.21,0,0,1-24.22,18.2Z"/></g></svg>